<svg id="구성_요소_40_2" data-name="구성 요소 40 – 2" xmlns="http://www.w3.org/2000/svg" width="32" height="32" viewBox="0 0 32 32">
  <g id="location" transform="translate(779.667 -354.354)">
    <path id="패스_29" data-name="패스 29" d="M217.488,86.456a8.106,8.106,0,0,1,8.276.068A8.623,8.623,0,0,1,229.8,93.9a12.424,12.424,0,0,1-3.757,7.971,22.031,22.031,0,0,1-3.951,3.318,1.381,1.381,0,0,1-.481.171.965.965,0,0,1-.459-.14,21.783,21.783,0,0,1-5.693-5.35,10.918,10.918,0,0,1-2.131-6.118l.006-.321A8.409,8.409,0,0,1,217.488,86.456Zm5.147,4.821a2.76,2.76,0,0,0-3.052.612A2.888,2.888,0,0,0,218.973,95a2.8,2.8,0,0,0,2.586,1.761,2.752,2.752,0,0,0,1.98-.826,2.888,2.888,0,0,0-.9-4.653Z" transform="translate(-985 275)" fill="none" stroke="#d1d9e6" stroke-width="2"/>
  </g>
  <rect id="사각형_32" data-name="사각형 32" width="32" height="32" fill="none"/>
</svg>
