<svg width="127" height="30" viewBox="0 0 127 30" fill="none" xmlns="http://www.w3.org/2000/svg">
<path d="M5.48 5.52V12.84H13.72V17.32H5.48V29H0.36V1.12H14.92V5.52H5.48ZM18.3547 0.52H23.9547V5.84H18.3547V0.52ZM18.5547 9.08H23.7547V29H18.5547V9.08ZM36.2856 29.6C34.8056 29.6 33.6456 29.3467 32.8056 28.84C31.9656 28.3333 31.3723 27.5733 31.0256 26.56C30.6923 25.5333 30.5256 24.1867 30.5256 22.52V13.28H27.9256V9.08H30.7256L31.0056 4.88L35.3656 3V9.08H40.2856V13.28H35.3656V22.4C35.3656 23.52 35.519 24.3133 35.8256 24.78C36.1323 25.2467 36.5923 25.48 37.2056 25.48C37.7523 25.48 38.3456 25.34 38.9856 25.06C39.639 24.7667 40.179 24.44 40.6056 24.08L41.5656 28.12C40.979 28.5333 40.1323 28.88 39.0256 29.16C37.9323 29.4533 37.019 29.6 36.2856 29.6ZM68.9925 0.639998V29H64.0325V17.04L64.2125 12.32L62.7925 14.48L57.3125 20.92L51.8325 14.48L50.4125 12.32L50.6325 17.04V29H45.6725V0.639998H46.0725L57.3525 13.94L68.5525 0.639998H68.9925ZM79.3116 29.56C78.1249 29.56 77.1249 29.2933 76.3116 28.76C75.4982 28.2267 74.8849 27.5067 74.4716 26.6C74.0716 25.6933 73.8716 24.68 73.8716 23.56C73.8716 22.5867 74.1916 21.62 74.8316 20.66C75.4849 19.6867 76.6382 18.86 78.2916 18.18C79.9449 17.5 82.1782 17.16 84.9916 17.16V16.24C84.9916 15.1467 84.7249 14.3 84.1916 13.7C83.6716 13.1 82.7516 12.8 81.4316 12.8C80.3916 12.8 79.3716 12.98 78.3716 13.34C77.3849 13.6867 76.6582 14.12 76.1916 14.64L74.5916 10.8C75.4982 10.1867 76.6249 9.66667 77.9716 9.24C79.3182 8.81333 80.7516 8.6 82.2716 8.6C84.1782 8.6 85.6849 8.89333 86.7916 9.48C87.9116 10.0667 88.6982 10.8933 89.1516 11.96C89.6049 13.0267 89.8316 14.3467 89.8316 15.92V29H85.5516L85.1916 26.16C84.4849 27.3067 83.6449 28.16 82.6716 28.72C81.7116 29.28 80.5916 29.56 79.3116 29.56ZM81.4316 25.72C82.0449 25.72 82.6916 25.4733 83.3716 24.98C84.0516 24.4867 84.5916 23.8667 84.9916 23.12V20.28C84.8049 20.2533 84.4849 20.24 84.0316 20.24C82.6849 20.24 81.4782 20.4667 80.4116 20.92C79.3582 21.36 78.8316 22.08 78.8316 23.08C78.8316 24.0267 79.0382 24.7067 79.4516 25.12C79.8782 25.52 80.5382 25.72 81.4316 25.72ZM101.754 29.6C100.274 29.6 99.1144 29.3467 98.2744 28.84C97.4344 28.3333 96.841 27.5733 96.4944 26.56C96.161 25.5333 95.9944 24.1867 95.9944 22.52V13.28H93.3944V9.08H96.1944L96.4744 4.88L100.834 3V9.08H105.754V13.28H100.834V22.4C100.834 23.52 100.988 24.3133 101.294 24.78C101.601 25.2467 102.061 25.48 102.674 25.48C103.221 25.48 103.814 25.34 104.454 25.06C105.108 24.7667 105.648 24.44 106.074 24.08L107.034 28.12C106.448 28.5333 105.601 28.88 104.494 29.16C103.401 29.4533 102.488 29.6 101.754 29.6ZM118.431 29.52C116.284 29.52 114.511 29.0667 113.111 28.16C111.711 27.24 110.684 26.0133 110.031 24.48C109.391 22.9467 109.071 21.2133 109.071 19.28C109.071 17.3067 109.431 15.5133 110.151 13.9C110.884 12.2733 111.951 10.9867 113.351 10.04C114.751 9.08 116.417 8.6 118.351 8.6C121.231 8.6 123.291 9.43333 124.531 11.1C125.771 12.7533 126.391 15.2267 126.391 18.52C126.391 19.16 126.364 19.88 126.311 20.68H114.311C114.391 22.2933 114.837 23.54 115.651 24.42C116.477 25.2867 117.684 25.72 119.271 25.72C120.097 25.72 120.984 25.54 121.931 25.18C122.877 24.8067 123.577 24.36 124.031 23.84L125.631 27.64C123.751 28.8933 121.351 29.52 118.431 29.52ZM121.311 17.56C121.311 15.6 121.064 14.2533 120.571 13.52C120.091 12.7733 119.391 12.4 118.471 12.4C117.177 12.4 116.171 12.88 115.451 13.84C114.744 14.8 114.351 16.04 114.271 17.56H121.311Z" fill="url(#paint0_linear_888_2176)"/>
<defs>
<linearGradient id="paint0_linear_888_2176" x1="-3" y1="40" x2="158" y2="40" gradientUnits="userSpaceOnUse">
<stop stop-color="#73D7D7"/>
<stop offset="1" stop-color="#2975CF"/>
</linearGradient>
</defs>
</svg>
