<svg id="calendar-clear-outline" xmlns="http://www.w3.org/2000/svg" width="16" height="16" viewBox="0 0 16 16">
  <path id="패스_72" data-name="패스 72" d="M77.714,142.985H66.286A2.3,2.3,0,0,1,64,140.679V130.305A2.3,2.3,0,0,1,66.286,128H77.714A2.3,2.3,0,0,1,80,130.305v10.374A2.3,2.3,0,0,1,77.714,142.985ZM66.286,129.153a1.151,1.151,0,0,0-1.143,1.153v10.374a1.151,1.151,0,0,0,1.143,1.153H77.714a1.151,1.151,0,0,0,1.143-1.153V130.305a1.151,1.151,0,0,0-1.143-1.153Z" transform="translate(-64 -126.985)"/>
  <path id="패스_73" data-name="패스 73" d="M79.429,68.569H64.571a.511.511,0,1,1,0-1.015H79.429a.511.511,0,1,1,0,1.015Zm-2.857-2.538A.544.544,0,0,1,76,65.523V64.508a.575.575,0,0,1,1.143,0v1.015A.544.544,0,0,1,76.571,66.031Zm-9.143,0a.544.544,0,0,1-.571-.508V64.508a.575.575,0,0,1,1.143,0v1.015A.544.544,0,0,1,67.429,66.031Z" transform="translate(-64 -64)"/>
</svg>
