<svg id="구성_요소_57_1" data-name="구성 요소 57 – 1" xmlns="http://www.w3.org/2000/svg" xmlns:xlink="http://www.w3.org/1999/xlink" width="24" height="24" viewBox="0 0 24 24">
  <defs>
    <linearGradient id="linear-gradient" x1="0.5" x2="0.5" y2="1" gradientUnits="objectBoundingBox">
      <stop offset="0" stop-color="#00c6fb"/>
      <stop offset="1" stop-color="#005bea"/>
    </linearGradient>
  </defs>
  <rect id="사각형_77" data-name="사각형 77" width="24" height="24" fill="none"/>
  <path id="빼기_2" data-name="빼기 2" d="M3067.424,4679h-12.853l-.062,0h-.064a1.112,1.112,0,0,1-.123-.009c-.021,0-.041,0-.062-.007l-.015,0-.052-.007a.831.831,0,0,1-.126-.021l-.045-.01-.016,0-.061-.014c-.038-.009-.076-.02-.122-.034a.743.743,0,0,1-.087-.026l-.019-.006-.016-.005-.048-.018-.07-.027-.027-.012-.031-.014-.057-.025-.024-.012-.021-.011c-.023-.011-.046-.022-.068-.036l-.109-.062c-.034-.02-.065-.04-.106-.067a1.172,1.172,0,0,1-.1-.071c-.022-.015-.042-.031-.062-.046l-.041-.032-.035-.032-.013-.011-.048-.042-.009-.008c-.03-.026-.058-.052-.085-.08l-.043-.048-.041-.044-.081-.1-.025-.033-.013-.018-.039-.049-.018-.026,0-.006c-.017-.024-.034-.05-.051-.072l-.024-.037,0,0c-.015-.022-.029-.044-.041-.067s-.041-.069-.061-.108l-.009-.017,0-.009a.961.961,0,0,1-.043-.087c-.016-.032-.029-.061-.041-.089l0-.006-.009-.021a1.145,1.145,0,0,1-.045-.118c-.018-.044-.03-.084-.041-.121-.006-.021-.011-.041-.016-.061l0-.018c0-.014-.007-.028-.011-.042a.8.8,0,0,1-.028-.121c0-.018-.006-.037-.009-.054v-.007c0-.022-.007-.043-.011-.064a1.056,1.056,0,0,1-.015-.121c0-.025,0-.047,0-.068v-.02c0-.015,0-.029,0-.043a1.117,1.117,0,0,1,0-.125l0-9.478a.089.089,0,0,1,0-.029.076.076,0,0,1,.008-.028.087.087,0,0,1,.011-.021l0-.007.007-.009.005-.006h0a.055.055,0,0,1,.008-.01.1.1,0,0,1,.025-.021.067.067,0,0,1,.019-.012l.009,0,0,0a.053.053,0,0,1,.024-.006.105.105,0,0,1,.033,0h17.668l.016,0h.016a.094.094,0,0,1,.029.008l.013.007.015.009a.055.055,0,0,0,.013.012l.01.009a.111.111,0,0,1,.021.026.12.12,0,0,1,.015.029.041.041,0,0,1,0,.014.06.06,0,0,0,0,.015.059.059,0,0,1,0,.029v9.478a4.345,4.345,0,0,1-.013.25c0,.043-.008.085-.015.126s-.013.082-.021.125l-.006.026c-.007.033-.014.063-.022.1s-.015.063-.024.093l-.008.027c-.006.019-.012.038-.019.056l0,.011c-.007.019-.013.037-.019.055-.011.034-.026.075-.044.118-.01.025-.021.049-.032.072l-.005.011c-.006.012-.011.023-.016.035-.017.038-.037.076-.056.113l-.025.045-.005.009-.031.054-.023.038-.008.014c-.012.02-.024.04-.037.058s-.03.044-.045.064l-.028.04-.015.02c-.02.026-.04.054-.063.08a.978.978,0,0,1-.081.1.654.654,0,0,1-.065.072l-.02.021-.031.029-.011.011-.014.013-.037.034c-.037.034-.069.062-.1.085a.827.827,0,0,1-.07.056l-.031.023c-.018.015-.037.027-.056.041l-.012.008-.033.022-.019.013-.006,0c-.026.017-.053.035-.08.051l-.109.062a1.162,1.162,0,0,1-.113.059l-.026.012-.007,0-.08.035-.028.012-.007,0c-.028.011-.055.022-.083.031l-.121.038c-.046.015-.084.025-.122.034s-.076.019-.114.027h-.008a.92.92,0,0,1-.125.021,1.192,1.192,0,0,1-.126.017h-.006a1.147,1.147,0,0,1-.119.009C3067.509,4679,3067.464,4679,3067.424,4679Zm-12.175-10.125a1,1,0,0,0-1,1v2.5a1,1,0,0,0,1,1h2.5a1,1,0,0,0,1-1v-2.5a1,1,0,0,0-1-1Zm14.589-3.365h-17.673l-.016,0-.016,0a.092.092,0,0,1-.029-.008.08.08,0,0,1-.019-.012l0,0,0,0-.011-.009-.012-.011-.008-.009a.1.1,0,0,1-.013-.017.06.06,0,0,1-.012-.022l0-.007a.043.043,0,0,1,0-.015.069.069,0,0,0,0-.015.054.054,0,0,1,0-.029v-.48a4.305,4.305,0,0,1,.013-.251v-.009a1.039,1.039,0,0,1,.015-.116c0-.04.012-.081.02-.118v-.008a.987.987,0,0,1,.028-.121c.006-.033.015-.063.025-.1l.007-.023c.01-.031.02-.062.031-.091l.01-.03c.011-.035.026-.074.045-.117.01-.024.021-.047.031-.069l.022-.047a.961.961,0,0,1,.043-.087l0-.009.009-.017c.013-.025.027-.049.04-.073l.021-.037.01-.017.01-.017c.016-.027.031-.052.047-.074s.043-.063.064-.092l0-.006,0-.006c.029-.041.053-.072.078-.1a1.044,1.044,0,0,1,.081-.1.6.6,0,0,1,.084-.092l.047-.044c.015-.015.03-.03.047-.044.032-.03.065-.058.1-.083a.928.928,0,0,1,.073-.057l.022-.017.007,0a.935.935,0,0,1,.078-.056l.023-.016c.032-.021.069-.045.106-.067l.109-.062a1.22,1.22,0,0,1,.113-.059c.036-.018.072-.034.114-.051l.019-.008c.03-.013.062-.026.1-.038l.121-.038.015,0a.921.921,0,0,1,.107-.029c.037-.011.078-.021.121-.029a1.209,1.209,0,0,1,.125-.02.844.844,0,0,1,.1-.015l.022,0c.048,0,.088-.008.126-.008s.086,0,.125,0h.645v-.645a.414.414,0,0,1,0-.067.293.293,0,0,1,.008-.062.325.325,0,0,1,.016-.063l.024-.062a.4.4,0,0,1,.028-.059.455.455,0,0,1,.033-.054l.02-.024.021-.026a.245.245,0,0,1,.045-.046l.005,0,.011-.01.007-.007.024-.02.009-.007.005,0a.27.27,0,0,1,.039-.027l0,0,.012-.008a.233.233,0,0,1,.04-.023l.061-.024.009,0a.27.27,0,0,1,.052-.017l.03-.006.036-.007h.008a.326.326,0,0,1,.056-.007h.064a.66.66,0,0,1,.612.66v.628h9v-.645a.306.306,0,0,1,0-.067.256.256,0,0,1,.008-.062.3.3,0,0,1,.016-.063l.023-.062a.645.645,0,0,1,.061-.113l.018-.021a.352.352,0,0,0,.022-.029.219.219,0,0,1,.024-.026l0,0,.017-.017.018-.016.005,0a.272.272,0,0,1,.025-.021l.01-.008a.349.349,0,0,1,.043-.029l0,0,.012-.008a.233.233,0,0,1,.04-.023l.061-.024.009,0a.259.259,0,0,1,.051-.017l.028-.006.036-.007.011,0a.333.333,0,0,1,.055-.006h.065a.66.66,0,0,1,.612.66v.615h.707l.062,0a1.1,1.1,0,0,1,.126.008c.023,0,.049.005.073.009h.007l.045.006a.738.738,0,0,1,.092.014h.006l.028.005.065.016.015,0,.02.005.02,0a1.093,1.093,0,0,1,.122.033.748.748,0,0,1,.089.027l.016.005.015.005.054.021.025.01.038.015.065.029.014.006.035.016.039.019.012.006.063.033.109.063c.038.022.072.044.106.067s.073.05.1.072.044.033.065.05l.036.029.016.014.023.02.058.05.022.02.016.015.055.052.03.032.012.014.042.046.059.069.012.015.01.012.025.033.013.018.039.049.037.053.036.052.013.02.005.008c.018.027.035.053.051.082s.042.073.06.108a1.242,1.242,0,0,1,.057.113c.017.037.032.07.046.1l.007.016c.017.042.032.08.043.116a1.2,1.2,0,0,1,.041.122c.005.018.01.034.014.051l0,.007c.005.02.01.041.017.063a1.1,1.1,0,0,1,.027.113v.007c0,.021.007.042.01.063s.006.042.01.063.01.069.014.1l0,.024c0,.014,0,.029,0,.044v.02c0,.021,0,.041,0,.061,0,.042,0,.084,0,.125h0v.493a.062.062,0,0,1,0,.029.073.073,0,0,1-.008.03.069.069,0,0,1-.011.021l0,0-.008.011-.013.017a.105.105,0,0,1-.026.021.072.072,0,0,1-.019.013l-.01,0a.061.061,0,0,1-.028.008A.089.089,0,0,1,3069.839,4665.51Z" transform="translate(-3049 -4658)" fill="url(#linear-gradient)"/>
</svg>
