<svg id="구성_요소_55_5" data-name="구성 요소 55 – 5" xmlns="http://www.w3.org/2000/svg" width="12" height="12" viewBox="0 0 12 12">
  <path id="패스_74" data-name="패스 74" d="M102,108a6,6,0,1,1,6-6A6.006,6.006,0,0,1,102,108Zm0-11.077A5.077,5.077,0,1,0,107.077,102,5.084,5.084,0,0,0,102,96.923Z" transform="translate(-96 -96)" fill="#6e7995"/>
  <path id="패스_75" data-name="패스 75" d="M483.423,229.379h-2.934a.49.49,0,0,1-.489-.489v-4.4a.489.489,0,1,1,.978,0V228.4h2.445a.489.489,0,1,1,0,.978Z" transform="translate(-474.608 -222.208)" fill="#6e7995"/>
</svg>
