<svg id="구성_요소_56_20" data-name="구성 요소 56 – 20" xmlns="http://www.w3.org/2000/svg" width="12" height="12" viewBox="0 0 12 12">
  <rect id="사각형_275185" data-name="사각형 275185" width="12" height="12" fill="none"/>
  <path id="fitness" d="M134.945,131.841l-3.1,3.1,2.107,2.107a.556.556,0,1,1-.786.786l-5-5a.556.556,0,1,1,.786-.786l2.107,2.107,3.1-3.1-2.107-2.107a.556.556,0,1,1,.786-.786l5,5a.555.555,0,1,1-.786.786Zm1.552-2.893a.556.556,0,1,1,.786-.786l.555.556a.556.556,0,1,1-.786.786Zm-8.333,8.333a.556.556,0,1,1,.786-.786l.556.556a.556.556,0,1,1-.786.786Zm6.111-8.333a.556.556,0,1,1,.786-.786l2.778,2.778a.556.556,0,1,1-.786.786Zm-6.111,6.111a.556.556,0,1,1,.786-.786l2.778,2.778a.556.556,0,1,1-.786.786Z" transform="translate(-127 -127)" fill="#6e7995"/>
</svg>
