<svg id="fitness" xmlns="http://www.w3.org/2000/svg" width="16" height="16" viewBox="0 0 16 16">
  <path id="fitness-2" data-name="fitness" d="M139.111,134.146l-4.965,4.965,3.372,3.372a.889.889,0,1,1-1.257,1.257l-8-8a.889.889,0,1,1,1.257-1.257l3.372,3.372,4.965-4.965-3.372-3.372a.889.889,0,1,1,1.257-1.257l8,8a.889.889,0,1,1-1.257,1.257Zm2.483-4.628a.889.889,0,1,1,1.257-1.257l.889.889a.889.889,0,1,1-1.257,1.257Zm-13.333,13.333a.889.889,0,1,1,1.257-1.257l.889.889a.889.889,0,1,1-1.257,1.257Zm9.778-13.333a.889.889,0,1,1,1.257-1.257l4.444,4.445a.889.889,0,1,1-1.257,1.257Zm-9.778,9.778a.889.889,0,1,1,1.257-1.257l4.444,4.445a.889.889,0,1,1-1.257,1.257Z" transform="translate(-128 -128)" fill="#6e7995"/>
</svg>
