<svg id="구성_요소_26_1" data-name="구성 요소 26 – 1" xmlns="http://www.w3.org/2000/svg" xmlns:xlink="http://www.w3.org/1999/xlink" width="24" height="24" viewBox="0 0 24 24">
  <defs>
    <linearGradient id="linear-gradient" x1="0.5" x2="0.5" y2="1" gradientUnits="objectBoundingBox">
      <stop offset="0" stop-color="#00c6fb"/>
      <stop offset="1" stop-color="#005bea"/>
    </linearGradient>
  </defs>
  <g id="newspaper-sharp" transform="translate(-36.397 -36.4)">
    <path id="패스_30" data-name="패스 30" d="M851.455,208.2H849.6v10.849c0,.037,0,.074.007.112s.01.074.017.112a.99.99,0,0,0,.027.108.962.962,0,0,0,.037.1c.014.034.03.068.047.1a.876.876,0,0,0,.058.095c.02.03.044.061.068.091a.89.89,0,0,0,.159.159.912.912,0,0,0,.091.068c.03.02.064.041.095.058s.068.034.1.047.071.027.1.037.071.02.108.027.074.014.112.017.074.007.112.007.074,0,.112-.007.074-.01.112-.017a1.02,1.02,0,0,0,.108-.027.956.956,0,0,0,.1-.037c.034-.014.068-.03.1-.047a.879.879,0,0,0,.095-.058c.03-.02.061-.044.091-.068a.89.89,0,0,0,.159-.159.915.915,0,0,0,.068-.091c.02-.03.041-.064.057-.095s.034-.068.047-.1.027-.071.037-.1.02-.071.027-.108.014-.074.017-.112.007-.074.007-.112V208.626a.718.718,0,0,0-.007-.085.741.741,0,0,0-.024-.081.318.318,0,0,0-.041-.074.492.492,0,0,0-.118-.118.321.321,0,0,0-.074-.041.37.37,0,0,0-.081-.024C851.509,208.2,851.482,208.2,851.455,208.2Z" transform="translate(-794.488 -163.94)" fill="url(#linear-gradient)"/>
    <path id="패스_31" data-name="패스 31" d="M51.123,43.9H47.214V42.618h3.905V43.9Zm0,2.57H47.214V45.184h3.905v1.287Zm0,2.57H42.008V47.755h9.114Zm0,2.57H42.008V50.325h9.114Zm0,2.57H42.008V52.9h9.114Zm-9.114-7.711V42.614h3.905v3.854H42.008ZM55.645,57.3a1.758,1.758,0,0,1-.2-.065q-.1-.034-.2-.08c-.066-.03-.127-.061-.189-.1s-.123-.072-.181-.11a1.77,1.77,0,0,1-.17-.126q-.081-.063-.162-.137c-.05-.049-.1-.1-.147-.149s-.093-.107-.135-.16-.085-.114-.123-.171-.073-.118-.108-.179a1.738,1.738,0,0,1-.093-.19c-.027-.065-.054-.129-.077-.194s-.042-.133-.062-.2-.031-.137-.042-.206-.019-.137-.027-.209a1.9,1.9,0,0,1-.008-.209V39.884a.791.791,0,0,0-.008-.1.817.817,0,0,0-.027-.091.357.357,0,0,0-.046-.084.557.557,0,0,0-.135-.133.364.364,0,0,0-.085-.046.424.424,0,0,0-.093-.027.4.4,0,0,0-.1-.008H39.89a.823.823,0,0,0-.1.008.847.847,0,0,0-.093.027.364.364,0,0,0-.085.046.557.557,0,0,0-.135.133.357.357,0,0,0-.046.084.41.41,0,0,0-.027.091.731.731,0,0,0-.008.1V55.146a2.075,2.075,0,0,0,.046.438,1.917,1.917,0,0,0,.054.213,1.941,1.941,0,0,0,.077.209,1.88,1.88,0,0,0,.1.2,1.932,1.932,0,0,0,.116.19,2.308,2.308,0,0,0,.286.343,2,2,0,0,0,.166.149,2.211,2.211,0,0,0,.181.133,1.969,1.969,0,0,0,.193.114c.066.034.135.065.2.1s.139.053.212.076.143.038.216.053a2.158,2.158,0,0,0,.444.046H55.641a.044.044,0,0,0,.031-.011.047.047,0,0,0,.015-.03.041.041,0,0,0-.008-.03C55.672,57.324,55.657,57.3,55.645,57.3Z" transform="translate(0 0)" fill="url(#linear-gradient)"/>
  </g>
  <rect id="사각형_78" data-name="사각형 78" width="24" height="24" fill="none"/>
</svg>
