<svg xmlns="http://www.w3.org/2000/svg" width="16.5" height="16" viewBox="0 0 16.5 16">
  <g id="구성_요소_69_1" data-name="구성 요소 69 – 1" transform="translate(0.25)">
    <g id="chart" transform="translate(0 -62.488)">
      <path id="패스_224221" data-name="패스 224221" d="M15.416,76.394H1.088V64.015a.536.536,0,0,0-.544-.527A.536.536,0,0,0,0,64.015V76.9a.538.538,0,0,0,.24.439.628.628,0,0,0,.408.152H15.416A.564.564,0,0,0,16,76.945a.57.57,0,0,0-.584-.551Z" transform="translate(0 0)" fill="#6e7995" stroke="#6e7995" stroke-width="0.5"/>
      <path id="패스_224222" data-name="패스 224222" d="M124.35,307.206a.6.6,0,0,0,.4-.149l2.7-2.474,2.426,2.219a.616.616,0,0,0,.809,0L136,301.945a.486.486,0,0,0,.122-.568.571.571,0,0,0-.523-.321h-3.79a.525.525,0,1,0,0,1.046h2.41l-3.937,3.6-2.426-2.219a.616.616,0,0,0-.809,0l-3.1,2.84a.5.5,0,0,0,0,.74A.643.643,0,0,0,124.35,307.206Z" transform="translate(-120.969 -234.651)" fill="#6e7995" stroke="#6e7995" stroke-width="0.5"/>
    </g>
    <rect id="사각형_275235" data-name="사각형 275235" width="16" height="16" fill="none"/>
  </g>
</svg>
