<svg id="map-outline" xmlns="http://www.w3.org/2000/svg" width="16" height="16" viewBox="0 0 16 16">
  <path id="map-outline-2" data-name="map-outline" d="M48.869,52.572a1.627,1.627,0,0,1-.719-.172l-.05-.028-3.659-2.389c-.012-.006-.025-.009-.038-.016l-.059-.019a.216.216,0,0,0-.062-.009.418.418,0,0,0-.062,0c-.022,0-.041,0-.062,0a.442.442,0,0,0-.062.012l-.059.019a.235.235,0,0,0-.041.019l-3.2,2.086c-.012.009-.028.016-.041.025a.9.9,0,0,1-.125.056c-.041.016-.084.028-.128.041a.926.926,0,0,1-.134.022c-.044,0-.091.006-.137.006a1.137,1.137,0,0,1-.266-.041.894.894,0,0,1-.128-.047c-.041-.019-.081-.041-.122-.063A1.22,1.22,0,0,1,39.6,52c-.034-.028-.069-.059-.1-.091a.951.951,0,0,1-.088-.1,1.174,1.174,0,0,1-.075-.113c-.022-.041-.041-.081-.059-.122s-.031-.084-.044-.128a.928.928,0,0,1-.025-.134.971.971,0,0,1-.009-.134V41.415a1.054,1.054,0,0,1,.037-.281,1.025,1.025,0,0,1,.113-.263,1.111,1.111,0,0,1,.178-.222,1.033,1.033,0,0,1,.2-.15l3.7-2.486.047-.028a1.529,1.529,0,0,1,.35-.134,1.548,1.548,0,0,1,.744-.009,1.592,1.592,0,0,1,.353.128l.05.028,3.747,2.4a.5.5,0,0,0,.1.031.562.562,0,0,0,.25,0c.034-.009.066-.022.1-.034L52.378,38.3c.012-.009.028-.016.041-.025a.9.9,0,0,1,.125-.056,1.3,1.3,0,0,1,.131-.041.926.926,0,0,1,.134-.022c.044,0,.091-.006.134-.006a.977.977,0,0,1,.134.013.969.969,0,0,1,.259.075,1.126,1.126,0,0,1,.122.063,1.22,1.22,0,0,1,.112.078c.034.028.069.059.1.091a.951.951,0,0,1,.088.1,1.176,1.176,0,0,1,.075.113,1.092,1.092,0,0,1,.059.122c.016.041.031.084.044.128a.93.93,0,0,1,.025.134.971.971,0,0,1,.009.134v9.753a1.056,1.056,0,0,1-.156.547,1.026,1.026,0,0,1-.181.222.967.967,0,0,1-.206.15l-3.784,2.492-.047.028a1.577,1.577,0,0,1-.35.131,1.6,1.6,0,0,1-.169.031.524.524,0,0,1-.141.013h-.063S48.872,52.572,48.869,52.572Zm-4.128-3.605.025.009a1.735,1.735,0,0,1,.175.075l.05.028,3.444,2.248V41.4a1.494,1.494,0,0,1-.194-.081l-.05-.028-3.45-2.2Zm4.747-7.573v9.812l3.381-2.226.047-.028V39.2L49.728,41.28c-.013.009-.028.016-.041.025A1.615,1.615,0,0,1,49.487,41.393Zm-5.8-2.28-3.381,2.27-.047.028v9.753l3.184-2.076c.012-.009.028-.016.041-.025a1.7,1.7,0,0,1,.172-.078l.031-.013Z" transform="translate(-38.586 -37.186)" stroke="#000" stroke-width="0.4"/>
  <rect id="사각형_140" data-name="사각형 140" width="16" height="16" fill="none"/>
</svg>
