<svg id="구성_요소_61_6" data-name="구성 요소 61 – 6" xmlns="http://www.w3.org/2000/svg" width="12" height="12" viewBox="0 0 12 12">
  <g id="Icon_feather-users" data-name="Icon feather-users" transform="translate(-1 -3)">
    <path id="패스_224200" data-name="패스 224200" d="M9.5,25.5v-1a2,2,0,0,0-2-2h-4a2,2,0,0,0-2,2v1" transform="translate(0 -12)" fill="none" stroke="#6e7995" stroke-linecap="round" stroke-linejoin="round" stroke-width="1"/>
    <path id="패스_224201" data-name="패스 224201" d="M11.5,6.5a2,2,0,1,1-2-2A2,2,0,0,1,11.5,6.5Z" transform="translate(-4)" fill="none" stroke="#6e7995" stroke-linecap="round" stroke-linejoin="round" stroke-width="1"/>
    <path id="패스_224202" data-name="패스 224202" d="M31.5,25.63v-1A2,2,0,0,0,30,22.7" transform="translate(-19 -12.13)" fill="none" stroke="#6e7995" stroke-linecap="round" stroke-linejoin="round" stroke-width="1"/>
    <path id="패스_224203" data-name="패스 224203" d="M24,4.7A2,2,0,0,1,24,8.57" transform="translate(-15 -0.13)" fill="none" stroke="#6e7995" stroke-linecap="round" stroke-linejoin="round" stroke-width="1"/>
  </g>
  <rect id="사각형_275212" data-name="사각형 275212" width="12" height="12" fill="none"/>
</svg>
