<svg id="구성_요소_63_1" data-name="구성 요소 63 – 1" xmlns="http://www.w3.org/2000/svg" xmlns:xlink="http://www.w3.org/1999/xlink" width="24" height="24" viewBox="0 0 24 24">
  <defs>
    <linearGradient id="linear-gradient" x1="0.5" x2="0.5" y2="1" gradientUnits="objectBoundingBox">
      <stop offset="0" stop-color="#00c6fb"/>
      <stop offset="1" stop-color="#005bea"/>
    </linearGradient>
  </defs>
  <path id="user" d="M126.381,77.23a3.97,3.97,0,0,0-1.314-1.932,4.212,4.212,0,0,0-2.118-1.025l-.359-.02a.833.833,0,0,0-.439.121c-.2.109-.387.2-.558.283a6.855,6.855,0,0,1-5.347,0l-.578-.283a.8.8,0,0,0-.419-.121l-.379.02a4.017,4.017,0,0,0-2.1.993,4.257,4.257,0,0,0-1.336,1.9A7.6,7.6,0,0,0,110.9,80a.718.718,0,0,0,.13.382.869.869,0,0,0,.309.3,3.323,3.323,0,0,0,.309.181q.188.1.9.384a13.516,13.516,0,0,0,1.506.493,17.384,17.384,0,0,0,2.114.384,21.472,21.472,0,0,0,2.734.171,22.371,22.371,0,0,0,2.722-.163,13.86,13.86,0,0,0,3.624-.874c.427-.169.734-.3.927-.4a1.228,1.228,0,0,0,.289-.171.837.837,0,0,0,.309-.312.745.745,0,0,0,.13-.372c-.012-.255-.03-.5-.05-.744a5.726,5.726,0,0,0-.08-.633c-.03-.169-.064-.336-.1-.5s-.066-.283-.1-.392-.062-.2-.09-.283a.4.4,0,0,0-.08-.161ZM118.9,73.547a4.4,4.4,0,0,0,3.241-1.357,4.632,4.632,0,0,0,0-6.533,4.551,4.551,0,0,0-6.483,0,4.639,4.639,0,0,0,0,6.537A4.4,4.4,0,0,0,118.9,73.547Z" transform="translate(-106.9 -61.3)" fill="url(#linear-gradient)"/>
  <rect id="사각형_275209" data-name="사각형 275209" width="24" height="24" fill="none"/>
</svg>
