<svg id="구성_요소_61_1" data-name="구성 요소 61 – 1" xmlns="http://www.w3.org/2000/svg" width="12" height="12" viewBox="0 0 12 12">
  <g id="location" transform="translate(773.667 -359.354)">
    <path id="패스_29" data-name="패스 29" d="M215.411,85.905a4.053,4.053,0,0,1,4.138.034,4.312,4.312,0,0,1,2.02,3.685,6.212,6.212,0,0,1-1.878,3.985,11.017,11.017,0,0,1-1.975,1.659.691.691,0,0,1-.241.085.482.482,0,0,1-.229-.07,10.891,10.891,0,0,1-2.847-2.675,5.459,5.459,0,0,1-1.065-3.059l0-.161A4.2,4.2,0,0,1,215.411,85.905Zm2.574,2.411a1.38,1.38,0,0,0-1.526.306,1.444,1.444,0,0,0-.305,1.553,1.4,1.4,0,0,0,1.293.881,1.376,1.376,0,0,0,.99-.413,1.444,1.444,0,0,0-.452-2.327Z" transform="translate(-985 275)" fill="none" stroke="#6e7995" stroke-width="1"/>
  </g>
  <rect id="사각형_32" data-name="사각형 32" width="12" height="12" fill="none"/>
</svg>
