<svg id="Icon_awesome-star_1" data-name="Icon awesome-star_1" xmlns="http://www.w3.org/2000/svg" width="32" height="32" viewBox="0 0 32 32">
  <path id="Icon_awesome-star" data-name="Icon awesome-star" d="M15.725,1.112,11.819,9.386,3.08,10.717a2.025,2.025,0,0,0-1.059,3.412l6.322,6.437-1.5,9.093a1.932,1.932,0,0,0,2.775,2.106l7.818-4.293,7.818,4.293a1.933,1.933,0,0,0,2.775-2.106l-1.5-9.093,6.322-6.437A2.025,2.025,0,0,0,31.8,10.717L23.064,9.386,19.158,1.112A1.88,1.88,0,0,0,15.725,1.112Z" transform="translate(-1.441 0.001)" fill="#ced3ea"/>
</svg>
