<svg id="search-outline" xmlns="http://www.w3.org/2000/svg" width="16" height="16" viewBox="0 0 16 16">
  <path id="패스_76" data-name="패스 76" d="M69.063,86.276c-.109,0-.219,0-.328-.007s-.219-.015-.325-.026-.215-.026-.325-.04-.215-.036-.321-.055-.215-.044-.317-.073-.212-.055-.314-.088-.208-.066-.31-.1-.2-.077-.306-.117-.2-.088-.3-.131-.2-.095-.292-.146-.19-.106-.285-.161-.186-.113-.277-.175-.179-.124-.266-.19-.175-.131-.259-.2q-.253-.209-.485-.441t-.442-.485c-.069-.084-.135-.172-.2-.259s-.128-.175-.19-.266-.12-.182-.175-.277-.109-.19-.161-.285-.1-.193-.146-.292-.091-.2-.131-.3-.08-.2-.117-.306-.069-.208-.1-.31-.062-.212-.088-.314-.051-.212-.073-.317-.04-.215-.055-.321-.029-.215-.04-.325-.018-.219-.026-.325-.007-.219-.007-.328,0-.219.007-.328.015-.219.026-.325.026-.215.04-.325.036-.215.055-.321.044-.215.073-.317.055-.212.088-.314.066-.208.1-.31.077-.2.117-.306.088-.2.131-.3.095-.2.146-.292.106-.19.161-.285.113-.186.175-.277.124-.179.19-.266.131-.175.2-.259q.209-.253.442-.485t.485-.442c.084-.069.171-.135.259-.2s.179-.128.266-.19.182-.12.277-.175.19-.109.285-.161.193-.1.292-.146.2-.091.3-.131.2-.08.306-.117.208-.069.31-.1.212-.062.314-.088.212-.051.317-.073.215-.04.321-.055.215-.029.325-.04.219-.018.325-.026a6.5,6.5,0,0,1,.653,0c.109,0,.219.015.325.026s.215.026.325.04.215.036.321.055.215.044.317.073.212.055.314.088.208.066.31.1.2.077.306.117.2.088.3.131.2.095.292.146.19.106.285.161.186.113.277.175.179.124.266.19.175.131.259.2q.253.209.485.442t.441.485c.069.084.135.171.2.259s.128.175.19.266.12.182.175.277.109.19.161.285.1.193.146.292.091.2.131.3.08.2.117.306.069.208.1.31.062.212.088.314.051.212.073.317.04.215.055.321.029.215.04.325.018.219.026.325.007.219.007.328,0,.219-.007.328-.015.219-.026.325-.026.215-.04.325-.036.215-.055.321-.044.215-.073.317-.055.212-.088.314-.066.208-.1.31-.077.2-.117.306-.088.2-.131.3-.095.2-.146.292-.106.19-.161.285-.113.186-.175.277-.124.179-.19.266-.131.175-.2.259q-.209.253-.441.485t-.485.441c-.084.069-.171.139-.259.2s-.175.128-.266.19-.182.12-.277.175-.19.109-.285.161-.193.1-.292.146-.2.091-.3.131-.2.08-.306.117-.208.069-.31.1-.208.062-.314.088-.212.051-.317.073-.215.04-.321.055-.215.029-.325.04-.219.018-.325.026S69.172,86.276,69.063,86.276Zm0-12.089c-.088,0-.179,0-.266.007s-.179.011-.266.018-.175.018-.263.033L68,74.29c-.088.018-.175.036-.259.058s-.171.044-.255.069-.171.055-.252.084-.168.062-.248.095-.164.069-.244.109-.161.077-.237.12-.157.088-.234.131-.153.095-.226.142-.146.1-.219.153-.142.109-.212.164-.135.113-.2.175a4.568,4.568,0,0,0-.376.376c-.058.066-.117.135-.175.2s-.109.139-.164.212-.106.146-.153.219-.1.15-.142.226-.091.153-.131.234-.08.157-.12.237-.073.161-.109.244-.066.164-.095.248-.058.168-.084.252-.051.172-.069.255-.04.175-.058.259-.033.175-.044.263-.026.175-.033.263-.015.179-.018.266-.007.179-.007.266,0,.179.007.266.011.179.018.266.018.175.033.263l.044.263c.018.088.036.175.058.259s.044.171.069.255.055.171.084.252.062.168.095.248.069.164.109.244.077.161.12.237.088.157.131.234.095.153.142.226.1.146.153.219.109.142.164.212.113.135.175.2a4.567,4.567,0,0,0,.376.376c.066.058.135.117.2.175s.139.109.212.164.146.106.219.153.15.1.226.142.153.091.234.131.157.08.237.12.161.073.244.109.164.066.248.095.168.058.252.084.171.051.255.069.172.04.259.058.175.033.263.044.175.026.266.033.179.015.266.018c.175.007.358.007.533,0,.088,0,.179-.011.266-.018s.179-.018.266-.033l.263-.044c.088-.018.175-.036.259-.058s.171-.044.255-.069.172-.055.252-.084.168-.062.248-.095.164-.069.244-.109.161-.077.237-.12.157-.084.234-.131.15-.095.226-.142l.219-.153c.069-.051.142-.109.212-.164s.135-.113.2-.175a4.571,4.571,0,0,0,.376-.376c.058-.066.117-.135.175-.2s.113-.139.164-.212.106-.142.153-.219.1-.15.142-.226.091-.153.131-.234.084-.157.12-.237.073-.161.109-.244.066-.164.095-.248.058-.168.084-.252.051-.172.069-.255.04-.171.058-.259.033-.175.044-.263.026-.175.033-.266.015-.179.018-.266.007-.179.007-.266,0-.179-.007-.266-.011-.179-.018-.266-.018-.179-.033-.266l-.044-.263c-.018-.088-.036-.175-.058-.259s-.044-.171-.069-.255-.055-.172-.084-.252-.062-.168-.095-.248-.069-.164-.109-.244-.077-.161-.12-.237-.088-.157-.131-.234-.095-.153-.142-.226l-.153-.219c-.055-.073-.109-.142-.164-.212s-.113-.135-.175-.2a4.573,4.573,0,0,0-.376-.376c-.066-.058-.135-.117-.2-.175s-.139-.113-.212-.164-.146-.106-.219-.153-.15-.1-.226-.142-.153-.091-.234-.131-.157-.08-.237-.12-.161-.073-.244-.109-.164-.066-.248-.095-.168-.058-.252-.084-.171-.051-.255-.069-.171-.04-.259-.058-.175-.033-.263-.044-.175-.026-.263-.033-.179-.015-.266-.018Z" transform="translate(-62.4 -72.95)"/>
  <path id="패스_77" data-name="패스 77" d="M645.94,657.157a.61.61,0,0,1-.434-.179l-4.225-4.225a.617.617,0,0,1,.872-.872l4.222,4.222a.619.619,0,0,1-.434,1.055Z" transform="translate(-630.555 -641.157)"/>
</svg>
