<svg id="구성_요소_62_2" data-name="구성 요소 62 – 2" xmlns="http://www.w3.org/2000/svg" xmlns:xlink="http://www.w3.org/1999/xlink" width="24" height="24" viewBox="0 0 24 24">
  <defs>
    <linearGradient id="linear-gradient" x1="0.5" x2="0.5" y2="1" gradientUnits="objectBoundingBox">
      <stop offset="0" stop-color="#00c6fb"/>
      <stop offset="1" stop-color="#005bea"/>
    </linearGradient>
  </defs>
  <rect id="사각형_275213" data-name="사각형 275213" width="24" height="24" fill="none"/>
  <path id="Icon_ionic-md-settings" data-name="Icon ionic-md-settings" d="M19.21,13.275a5.628,5.628,0,0,0,.046-.9c0-.315-.046-.585-.046-.9L21.142,9.99a.413.413,0,0,0,.092-.585L19.394,6.3a.448.448,0,0,0-.552-.18l-2.3.9a6.7,6.7,0,0,0-1.565-.9l-.322-2.385a.493.493,0,0,0-.46-.36H10.511a.493.493,0,0,0-.46.36L9.682,6.12a7.794,7.794,0,0,0-1.565.9l-2.3-.9a.431.431,0,0,0-.552.18L3.423,9.405a.543.543,0,0,0,.092.585l1.979,1.485c0,.315-.046.585-.046.9s.046.585.046.9L3.561,14.76a.413.413,0,0,0-.092.585L5.31,18.45a.448.448,0,0,0,.552.18l2.3-.9a6.7,6.7,0,0,0,1.565.9l.368,2.385a.446.446,0,0,0,.46.36h3.682a.493.493,0,0,0,.46-.36l.369-2.385a7.79,7.79,0,0,0,1.565-.9l2.3.9a.431.431,0,0,0,.552-.18l1.841-3.105a.543.543,0,0,0-.092-.585Zm-6.858,2.25a3.151,3.151,0,1,1,3.222-3.15A3.167,3.167,0,0,1,12.352,15.525Z" transform="translate(-0.375 -0.375)" fill="url(#linear-gradient)"/>
</svg>
