<svg id="Icon_awesome-star_s_1" data-name="Icon awesome-star_s_1" xmlns="http://www.w3.org/2000/svg" width="16" height="16" viewBox="0 0 16 16">
  <path id="Icon_awesome-star" data-name="Icon awesome-star" d="M8.583.556,6.63,4.693l-4.369.666a1.013,1.013,0,0,0-.529,1.706l3.161,3.218-.748,4.546a.966.966,0,0,0,1.388,1.053l3.909-2.147,3.909,2.147a.967.967,0,0,0,1.388-1.053l-.748-4.546,3.161-3.218a1.013,1.013,0,0,0-.529-1.706l-4.369-.666L10.3.556A.94.94,0,0,0,8.583.556Z" transform="translate(-1.441 0.001)" fill="#ced3ea"/>
</svg>
