<svg id="time-outline" xmlns="http://www.w3.org/2000/svg" width="16" height="16" viewBox="0 0 16 16">
  <path id="패스_74" data-name="패스 74" d="M104,112a8,8,0,1,1,8-8A8.009,8.009,0,0,1,104,112Zm0-14.769A6.769,6.769,0,1,0,110.769,104,6.779,6.779,0,0,0,104,97.231Z" transform="translate(-96 -96)"/>
  <path id="패스_75" data-name="패스 75" d="M484.527,231.114h-3.881a.649.649,0,0,1-.647-.647v-5.821a.647.647,0,1,1,1.294,0v5.174h3.234a.647.647,0,1,1,0,1.294Z" transform="translate(-472.783 -221.63)"/>
</svg>
