<svg id="구성_요소_50_4" data-name="구성 요소 50 – 4" xmlns="http://www.w3.org/2000/svg" width="12" height="12" viewBox="0 0 12 12">
  <path id="패스_72" data-name="패스 72" d="M74.286,139.232H65.714A1.723,1.723,0,0,1,64,137.5v-7.776A1.723,1.723,0,0,1,65.714,128h8.571A1.723,1.723,0,0,1,76,129.728V137.5A1.723,1.723,0,0,1,74.286,139.232Zm-8.571-10.368a.863.863,0,0,0-.857.864V137.5a.863.863,0,0,0,.857.864h8.571a.863.863,0,0,0,.857-.864v-7.776a.863.863,0,0,0-.857-.864Z" transform="translate(-64 -127.232)" fill="#6e7995"/>
  <path id="패스_73" data-name="패스 73" d="M75.571,67.455H64.429a.386.386,0,1,1,0-.768H75.571a.386.386,0,1,1,0,.768Zm-2.143-1.92A.409.409,0,0,1,73,65.152v-.768a.431.431,0,0,1,.857,0v.768A.409.409,0,0,1,73.429,65.536Zm-6.857,0a.409.409,0,0,1-.429-.384v-.768a.431.431,0,0,1,.857,0v.768A.409.409,0,0,1,66.571,65.536Z" transform="translate(-64 -64)" fill="#6e7995"/>
</svg>
