<svg id="구성_요소_60_1" data-name="구성 요소 60 – 1" xmlns="http://www.w3.org/2000/svg" width="16" height="16" viewBox="0 0 16 16">
  <g id="edit" transform="translate(-95 -136.601)">
    <path id="패스_224198" data-name="패스 224198" d="M109.433,145.09a.582.582,0,0,0-.568.567v5.668a.179.179,0,0,1-.189.189H97.325a.179.179,0,0,1-.189-.189V139.989a.179.179,0,0,1,.189-.189H103a.567.567,0,1,0,0-1.134H97.325A1.34,1.34,0,0,0,96,139.989v11.336a1.34,1.34,0,0,0,1.324,1.323h11.351A1.34,1.34,0,0,0,110,151.325v-5.668a.582.582,0,0,0-.568-.567Z" transform="translate(0 -1.047)" stroke="#000" stroke-width="0.4"/>
    <path id="패스_224199" data-name="패스 224199" d="M373.143,143.727l-.566,2.224a.535.535,0,0,0,.151.528.567.567,0,0,0,.415.151h.151l2.225-.566a.608.608,0,0,0,.264-.151L381.1,140.6a1.76,1.76,0,0,0-2.488-2.488l-5.316,5.354A.608.608,0,0,0,373.143,143.727Zm1.056.415,5.241-5.2a.613.613,0,0,1,.867.867l-5.2,5.241-1.169.3.264-1.207Z" transform="translate(-271.626 0)" stroke="#000" stroke-width="0.4"/>
  </g>
  <rect id="사각형_275210" data-name="사각형 275210" width="16" height="16" fill="none"/>
</svg>
