<svg id="구성_요소_37_1" data-name="구성 요소 37 – 1" xmlns="http://www.w3.org/2000/svg" xmlns:xlink="http://www.w3.org/1999/xlink" width="32" height="32" viewBox="0 0 32 32">
  <defs>
    <linearGradient id="linear-gradient" x1="0.5" x2="0.5" y2="1" gradientUnits="objectBoundingBox">
      <stop offset="0" stop-color="#3f51b5"/>
      <stop offset="1" stop-color="#6b8cce"/>
    </linearGradient>
  </defs>
  <path id="빼기_2" data-name="빼기 2" d="M3069.137,4681h-14.35l-.07,0c-.041,0-.087,0-.127-.008h-.013l-.069-.01-.069-.009a.935.935,0,0,1-.14-.022l-.054-.013-.017,0-.064-.016c-.046-.01-.094-.024-.135-.038a.908.908,0,0,1-.1-.028l-.021-.007-.019-.006-.061-.024-.069-.027-.024-.01c-.034-.014-.07-.029-.1-.045l-.05-.025-.013-.007-.064-.033-.121-.071c-.04-.023-.075-.045-.117-.074s-.082-.056-.112-.079-.052-.039-.076-.059l-.006,0-.029-.025-.055-.046-.054-.046c-.04-.036-.074-.068-.1-.1l-.048-.051-.01-.01-.038-.04-.043-.052-.046-.056c-.013-.018-.027-.035-.041-.053l-.006-.007-.011-.014-.028-.036-.033-.048,0-.006c-.015-.021-.029-.043-.044-.063l-.023-.035c-.02-.03-.038-.057-.053-.085s-.028-.049-.043-.075l0-.009-.021-.037c-.021-.038-.044-.082-.062-.125s-.037-.08-.052-.114l-.007-.017c-.017-.041-.037-.088-.05-.13a1.3,1.3,0,0,1-.046-.135c-.007-.023-.012-.044-.018-.066s-.011-.044-.018-.067a1,1,0,0,1-.028-.116l0-.02c0-.024-.009-.049-.012-.074s-.007-.044-.01-.065a1.4,1.4,0,0,1-.019-.14c0-.019,0-.038,0-.058s0-.055-.005-.082c0-.046,0-.093,0-.139h0V4667.6a.079.079,0,0,1,0-.033.083.083,0,0,1,.01-.033.073.073,0,0,1,.01-.02l.008-.012.008-.01.014-.018,0,0a.079.079,0,0,1,.023-.02.078.078,0,0,1,.025-.016l.007,0a.065.065,0,0,1,.032-.009.088.088,0,0,1,.035,0h19.653l.014,0a.089.089,0,0,1,.032.009.063.063,0,0,1,.018.01l.013.009.013.011,0,0,.01.009a.092.092,0,0,1,.022.028.1.1,0,0,1,.016.026l0,.006a.076.076,0,0,1,0,.012.074.074,0,0,0,.005.021.065.065,0,0,1,0,.033v10.53a1.321,1.321,0,0,1,0,.139c0,.039,0,.08-.006.112l0,.027a1.409,1.409,0,0,1-.019.14,1.127,1.127,0,0,1-.022.139l-.006.03c-.007.034-.014.069-.025.105a.948.948,0,0,1-.025.1l-.01.033c-.009.03-.019.059-.029.087l-.017.048a1.21,1.21,0,0,1-.049.13c-.011.03-.025.058-.037.084l-.01.022-.011.023c-.018.043-.042.087-.062.125l-.032.057c-.012.021-.024.042-.036.064l-.025.04-.007.012c-.014.024-.028.047-.044.069s-.041.061-.061.089l-.006.007-.015.021-.017.023c-.021.029-.043.058-.068.087a1.14,1.14,0,0,1-.09.108.665.665,0,0,1-.072.079l-.023.022-.044.042c-.019.019-.038.038-.059.056l-.009.008c-.03.027-.065.058-.1.083s-.046.039-.07.057l0,0-.038.029c-.021.016-.042.03-.063.044l-.01.007-.04.028-.023.015-.005,0c-.029.019-.059.038-.089.056l-.121.071c-.047.025-.089.047-.126.064s-.08.037-.127.055l-.019.008c-.034.014-.072.031-.112.043l-.135.041a1.322,1.322,0,0,1-.135.038,1.294,1.294,0,0,1-.129.032h-.006a1.2,1.2,0,0,1-.14.022.734.734,0,0,1-.112.016l-.027,0h-.005c-.049,0-.093.009-.135.009A1.316,1.316,0,0,1,3069.137,4681Zm-13.637-11.25a1,1,0,0,0-1,1v3a1,1,0,0,0,1,1h3a1,1,0,0,0,1-1v-3a1,1,0,0,0-1-1Zm16.319-3.738h-19.635l-.014,0-.007,0h0l-.014,0a.084.084,0,0,1-.032-.009.063.063,0,0,1-.018-.01l-.013-.009-.014-.012-.013-.012a.106.106,0,0,1-.022-.028.1.1,0,0,1-.016-.026l0-.005a.076.076,0,0,1,0-.011v-.005a.049.049,0,0,0,0-.017.068.068,0,0,1,0-.033v-.533c0-.046,0-.094,0-.14s0-.068.005-.1v-.005l0-.034c0-.046.01-.093.019-.139s.014-.1.022-.14c0-.012.006-.025.008-.038.007-.033.014-.065.023-.1a.835.835,0,0,1,.024-.095l0-.011.008-.028c.009-.029.019-.058.028-.085l0-.012.013-.039c.011-.034.027-.077.05-.13.011-.028.024-.055.037-.083l.022-.047c.014-.033.03-.064.048-.1l0-.007.011-.02.017-.03.008-.014c.015-.025.029-.05.043-.078s.022-.035.032-.053.029-.047.044-.068.05-.073.081-.115l0-.007c.025-.034.051-.069.081-.1a.912.912,0,0,1,.089-.107.652.652,0,0,1,.1-.1l.035-.034.005-.005c.021-.02.041-.04.063-.059l.017-.016a1.132,1.132,0,0,1,.091-.077.869.869,0,0,1,.077-.062l.017-.012.019-.015c.024-.019.048-.036.075-.055l.036-.025.027-.018.016-.011c.024-.016.049-.032.074-.046l.121-.069a1.253,1.253,0,0,1,.127-.064l.016-.007c.04-.019.075-.035.11-.049s.085-.036.13-.051l.135-.042.006,0,.015,0c.038-.011.076-.023.114-.031s.083-.021.127-.03l.008,0c.031-.006.087-.018.14-.023a1.171,1.171,0,0,1,.118-.016l.021,0a1.267,1.267,0,0,1,.14-.009,1.332,1.332,0,0,1,.14,0h.716v-.714a.386.386,0,0,1,0-.075.344.344,0,0,1,.006-.058l0-.012a.393.393,0,0,1,.019-.07l.027-.069a.33.33,0,0,1,.032-.064.362.362,0,0,1,.035-.06l.012-.016.007-.009c.009-.011.018-.021.025-.032a.222.222,0,0,1,.051-.05l.019-.017,0,0,0,0,.026-.022a.69.69,0,0,1,.057-.042l.014-.008.008-.005.006,0a.216.216,0,0,1,.035-.019l.068-.028.006,0,.008,0a.316.316,0,0,1,.053-.018l.049-.01.022,0a.364.364,0,0,1,.072-.008h.073a.731.731,0,0,1,.679.733v.7h10v-.714a.522.522,0,0,1,0-.075.341.341,0,0,1,.009-.068.525.525,0,0,1,.018-.071l.027-.069a.561.561,0,0,1,.032-.064.33.33,0,0,1,.036-.06l.02-.025,0-.006a.277.277,0,0,0,.02-.025.253.253,0,0,1,.033-.035l.016-.015.03-.026.024-.021.011-.009c.015-.011.03-.022.048-.034l.022-.013a.284.284,0,0,1,.042-.023l.067-.028a.364.364,0,0,1,.068-.023l.049-.01.022,0a.338.338,0,0,1,.072-.008h.073a.731.731,0,0,1,.679.733v.683h.716l.068,0,.072,0a1.393,1.393,0,0,1,.14.008l.069.01.069.009a1.142,1.142,0,0,1,.14.023l.064.016.007,0h0l.064.016a1.17,1.17,0,0,1,.135.037.754.754,0,0,1,.082.024l.011,0,.007,0,.035.012c.022.01.044.018.066.025l.065.025.053.023.073.033.028.014c.032.016.065.032.1.051l.121.069c.039.023.074.045.108.068l.009.006c.036.024.076.052.112.08a.713.713,0,0,1,.072.055l0,0,.036.029.043.037.065.056c.033.03.07.063.1.1l.043.047c.017.019.035.038.052.055s.048.059.073.088l.016.019c.013.018.027.036.041.053l0,0,.042.055c.015.021.03.042.045.065l.036.051.019.028c.022.033.041.061.058.091l.03.052.01.017.029.052.011.02c.02.039.037.071.052.105s.041.088.059.131.039.1.049.129.031.086.046.135l.015.055,0,.014c.005.021.011.043.017.066a.935.935,0,0,1,.027.11l0,.023c.005.026.009.052.013.079v.005c0,.018.005.037.009.056a1.088,1.088,0,0,1,.018.139c0,.023,0,.045,0,.068s0,.048,0,.072c0,.047,0,.092,0,.14h0v.547a.079.079,0,0,1,0,.033.083.083,0,0,1-.01.033.1.1,0,0,1-.011.021l-.006.01-.009.011a.1.1,0,0,1-.013.017l0,0a.113.113,0,0,1-.023.02.075.075,0,0,1-.025.016l-.007,0a.065.065,0,0,1-.032.009A.091.091,0,0,1,3071.819,4666.012Z" transform="translate(-3046 -4655)" fill="url(#linear-gradient)"/>
  <rect id="사각형_39" data-name="사각형 39" width="32" height="32" fill="none"/>
</svg>
