<svg id="구성_요소_17_1" data-name="구성 요소 17 – 1" xmlns="http://www.w3.org/2000/svg" width="32" height="32" viewBox="0 0 32 32">
  <path id="home_4_" data-name="home (4)" d="M114.786,118.136a1.5,1.5,0,0,0-.536,1.147v8.782h4.25v-5.389a1.5,1.5,0,0,1,1.5-1.5h4a1.5,1.5,0,0,1,1.5,1.5v5.389h4.25v-8.782a1.5,1.5,0,0,0-.536-1.147l-6.25-5.231a1.5,1.5,0,0,0-1.928,0Zm8.464,5.288h-2.5v4.64a2.248,2.248,0,0,1-2.25,2.245h-4.25a2.248,2.248,0,0,1-2.25-2.245v-8.782a3.739,3.739,0,0,1,1.34-2.867l6.25-5.231a3.756,3.756,0,0,1,4.82,0l6.25,5.231a3.739,3.739,0,0,1,1.34,2.867v8.782a2.248,2.248,0,0,1-2.25,2.245H125.5a2.248,2.248,0,0,1-2.25-2.245Z" transform="translate(-106 -104.31)" fill="#d1d9e6"/>
  <rect id="사각형_67" data-name="사각형 67" width="32" height="32" fill="none"/>
</svg>
