<svg id="구성_요소_21_5" data-name="구성 요소 21 – 5" xmlns="http://www.w3.org/2000/svg" width="32" height="32" viewBox="0 0 32 32">
  <rect id="사각형_41" data-name="사각형 41" width="32" height="32" fill="none"/>
  <path id="user_1_" data-name="user (1)" d="M84.667,74.667a10,10,0,1,0,10,10A10.014,10.014,0,0,0,84.667,74.667ZM79.545,91.5a5.122,5.122,0,1,1,10.244,0,8.537,8.537,0,0,1-10.244,0Zm2.927-8.78a2.2,2.2,0,1,1,2.2,2.2A2.186,2.186,0,0,1,82.472,82.715Zm8.634,7.512a6.6,6.6,0,0,0-4-4.829,3.609,3.609,0,0,0,1.171-2.683,3.659,3.659,0,1,0-7.317,0A3.609,3.609,0,0,0,82.13,85.4a6.6,6.6,0,0,0-4,4.829A8.556,8.556,0,1,1,93.2,84.667a8.357,8.357,0,0,1-2.1,5.561Z" transform="translate(-68.667 -68.667)" fill="#d1d9e6" stroke="#d1d9e6" stroke-width="0.4"/>
</svg>
