<svg id="구성_요소_36_2" data-name="구성 요소 36 – 2" xmlns="http://www.w3.org/2000/svg" width="32" height="32" viewBox="0 0 32 32">
  <rect id="사각형_39" data-name="사각형 39" width="32" height="32" fill="none"/>
  <g id="그룹_202449" data-name="그룹 202449" transform="translate(-2 -1.999)">
    <g id="그룹_202448" data-name="그룹 202448" transform="translate(8 8)">
      <path id="패스_80" data-name="패스 80" d="M81.143,146.827H66.857A2.88,2.88,0,0,1,64,143.93V130.9a2.88,2.88,0,0,1,2.857-2.9H81.143A2.88,2.88,0,0,1,84,130.9V143.93A2.88,2.88,0,0,1,81.143,146.827ZM66.857,129.448a1.443,1.443,0,0,0-1.429,1.448V143.93a1.443,1.443,0,0,0,1.429,1.448H81.143a1.443,1.443,0,0,0,1.429-1.448V130.9a1.443,1.443,0,0,0-1.429-1.448Z" transform="translate(-64 -126.827)" fill="#d1d9e6" stroke="#d1d9e6" stroke-width="0.4"/>
      <path id="패스_81" data-name="패스 81" d="M83.286,69.279H64.714a.6.6,0,1,1,0-1.173H83.286a.6.6,0,1,1,0,1.173Zm-3.571-2.933A.662.662,0,0,1,79,65.76V64.587a.728.728,0,0,1,1.429,0V65.76A.662.662,0,0,1,79.714,66.346Zm-11.429,0a.662.662,0,0,1-.714-.587V64.587a.728.728,0,0,1,1.429,0V65.76A.662.662,0,0,1,68.286,66.346Z" transform="translate(-64 -64)" fill="#d1d9e6" stroke="#d1d9e6" stroke-width="0.4"/>
    </g>
    <rect id="사각형_275167" data-name="사각형 275167" width="4" height="4" rx="1" transform="translate(12.015 15.996)" fill="#d1d9e6"/>
  </g>
</svg>
