<svg id="구성_요소_30_1" data-name="구성 요소 30 – 1" xmlns="http://www.w3.org/2000/svg" width="16" height="16" viewBox="0 0 16 16">
  <path id="Icon_ionic-ios-checkmark" data-name="Icon ionic-ios-checkmark" d="M26.35,13.64,25.042,12.3a.281.281,0,0,0-.208-.089h0a.27.27,0,0,0-.208.089l-9.065,9.132-3.3-3.3a.287.287,0,0,0-.416,0l-1.323,1.323a.3.3,0,0,0,0,.424l4.161,4.161a1.316,1.316,0,0,0,.869.424,1.379,1.379,0,0,0,.862-.409h.007l9.934-9.986A.318.318,0,0,0,26.35,13.64Z" transform="translate(-10.434 -10.206)" fill="#d1d9e6"/>
  <rect id="사각형_102" data-name="사각형 102" width="16" height="16" fill="none"/>
</svg>
