<svg xmlns="http://www.w3.org/2000/svg" width="16.4" height="16.4" viewBox="0 0 16.4 16.4">
  <g id="notice" transform="translate(0.2 0.2)">
    <path id="notice-2" data-name="notice" d="M60.887,82.651H59.512V77.68a6.139,6.139,0,0,0-5.337-6.187V71.17a.644.644,0,1,0-1.287,0v.323A6.139,6.139,0,0,0,47.55,77.68v4.971H46.174a.67.67,0,0,0,0,1.34H60.887a.67.67,0,0,0,0-1.34Zm-12.05,0V77.68a4.7,4.7,0,1,1,9.387,0v4.971H48.837ZM55.83,85.83a.657.657,0,0,1-.644.67h-3.31a.67.67,0,0,1,0-1.34h3.31A.657.657,0,0,1,55.83,85.83Z" transform="translate(-45.531 -70.5)" stroke="#000" stroke-width="0.4"/>
  </g>
</svg>
